# xmcd
#
# Track frame offsets: 
#        150
#        35603
#        45558
#        66828
#        79107
#        91849
#        113647
#        131180
#        150824
#        168861
#
# Disc length: 4791 seconds
#
# Revision: 1
# Processed by: cddbd v1.5.2PL0 Copyright (c) Steve Scherf et al.
# Submitted via: ExactAudioCopy v0.95b4
#
DISCID=7112b50a
DTITLE=Various Artist - Pieprz i Wanilia vol.3 [CD 2)
DYEAR=2006
DGENRE=Lounge
TTITLE0=Donald Byrd - Bossa (Canto G. Bossa)
TTITLE1=Wes Montgomery - The Shadow Of Your Smile
TTITLE2=Quincy Jones - Along Came Betty
TTITLE3=Joao Bosco - O Bebado e a Equilibrista (Live)
TTITLE4=Sarah Vaughan, Harold Maloney and His Orchestra - Summertime
TTITLE5=Charkie Haden Quartet West - Low Key Lightly
TTITLE6=Amalia Gre - Io Cammino Di Notte Da Sola
TTITLE7=Sarah Jane Morris - Don't Leave Me This Way
TTITLE8=Wolfgang Dauner Quintet - Take Off Your Clothes To Feel The Se
TTITLE8=tting Sun
TTITLE9=Vizy Alfred Tripti Shakya - Mahamrityunjay Mantra
EXTD=YEAR: 2006
EXTT0=
EXTT1=
EXTT2=
EXTT3=
EXTT4=
EXTT5=
EXTT6=
EXTT7=
EXTT8=
EXTT9=
PLAYORDER=
